<svg>

		<marker id="arrow" viewBox="0 0 15 10" refX="5" refY="5"
        markerWidth="15" markerHeight="5"
        orient="auto">
      <path d="M 5 5 L 12 0 L 12 10 z" />
    </marker>
  <rect width="300" height="400" x="0" y="0" style="fill:white;stroke-width:2;stroke:rgb(0,0,0)" />
  <text x="5" y="15" >ACTIVATION_CHALLENGE</text>
  <text x="295" y="15" text-anchor="end" >minimum 8 bytes BE</text>
  <rect width="300" height="40" x="0" y="0" style="fill:white;stroke-width:2;stroke:rgb(0,0,0)" />
  <text x="5" y="15" >ID_OBJECT length</text>
  <text x="295" y="15" text-anchor="end" >[2]byte BE</text>

  <rect width="300" height="240" x="0" y="40" style="fill:white;stroke-width:2;stroke:rgb(0,0,0)" />
  <text x="5" y="55" >ID_OBJECT</text>
  <text x="295" y="55" text-anchor="end" >minimum 4 bytes BE</text>
  <rect width="300" height="120" x="355" y="40" style="fill:white;stroke-width:2;stroke:rgb(0,0,0)" />
  <text x="360" y="55" >HMAC</text>
  <text x="650" y="55" text-anchor="end" >minimum 2 bytes BE</text>
  <rect width="300" height="40" x="710" y="40" style="fill:white;stroke-width:2;stroke:rgb(0,0,0)" />
  <text x="715" y="55" >HMAC length</text>
  <text x="1005" y="55" text-anchor="end" >[2]byte BE</text>

<line x1="655" y1="6.00E+01" x2="710" y2="6.00E+01" marker-start="url(#arrow)" stroke="black" stroke-width="2" stroke-dasharray="4" />
  <rect width="300" height="80" x="710" y="80" style="fill:white;stroke-width:2;stroke:rgb(0,0,0)" />
  <text x="715" y="95" >HMAC(seed, ak, 'INTEGRITY')</text>
  <text x="1005" y="95" text-anchor="end" >minimum 0 bytes BE</text>

<line x1="655" y1="1.20E+02" x2="710" y2="1.20E+02" marker-start="url(#arrow)" stroke="black" stroke-width="2" stroke-dasharray="4" />

<line x1="300" y1="1.00E+02" x2="355" y2="1.00E+02" marker-start="url(#arrow)" stroke="black" stroke-width="2" stroke-dasharray="4" />
  <rect width="300" height="120" x="355" y="160" style="fill:white;stroke-width:2;stroke:rgb(0,0,0)" />
  <text x="360" y="175" >ENCRYPTED_SECRET</text>
  <text x="650" y="175" text-anchor="end" >minimum 2 bytes BE</text>
  <rect width="300" height="40" x="710" y="160" style="fill:white;stroke-width:2;stroke:rgb(0,0,0)" />
  <text x="715" y="175" >Encrypted secret length</text>
  <text x="1005" y="175" text-anchor="end" >[2]byte BE</text>

<line x1="655" y1="1.80E+02" x2="710" y2="1.80E+02" marker-start="url(#arrow)" stroke="black" stroke-width="2" stroke-dasharray="4" />
  <rect width="300" height="80" x="710" y="200" style="fill:white;stroke-width:2;stroke:rgb(0,0,0)" />
  <text x="715" y="215" >AES(secret, NULL_IV)</text>
  <text x="1005" y="215" text-anchor="end" >minimum 0 bytes BE</text>

<line x1="655" y1="2.40E+02" x2="710" y2="2.40E+02" marker-start="url(#arrow)" stroke="black" stroke-width="2" stroke-dasharray="4" />

<line x1="300" y1="2.20E+02" x2="355" y2="2.20E+02" marker-start="url(#arrow)" stroke="black" stroke-width="2" stroke-dasharray="4" />

  <rect width="300" height="40" x="0" y="280" style="fill:white;stroke-width:2;stroke:rgb(0,0,0)" />
  <text x="5" y="295" >ENCRYPTED_SEED length</text>
  <text x="295" y="295" text-anchor="end" >[2]byte BE</text>

  <rect width="300" height="80" x="0" y="320" style="fill:white;stroke-width:2;stroke:rgb(0,0,0)" />
  <text x="5" y="335" >ENCRYPTED_SEED</text>
  <text x="295" y="335" text-anchor="end" >minimum 0 bytes BE</text>
  <rect width="300" height="80" x="355" y="320" style="fill:white;stroke-width:2;stroke:rgb(0,0,0)" />
  <text x="360" y="335" >OAEP(seed, 'IDENTITY')</text>
  <text x="650" y="335" text-anchor="end" >minimum 0 bytes BE</text>

<line x1="300" y1="3.60E+02" x2="355" y2="3.60E+02" marker-start="url(#arrow)" stroke="black" stroke-width="2" stroke-dasharray="4" />


</svg>
